P3
# Created by GIMP version 2.10.28 PNM plug-in
5 5
255
255
255
255
249
249
249
4
4
4
253
253
253
254
254
254
0
0
0
1
1
1
1
1
1
255
255
255
255
255
255
254
254
254
255
255
255
0
0
0
255
255
255
253
253
253
0
0
0
0
0
0
1
1
1
2
2
2
0
0
0
255
255
255
255
255
255
255
255
255
3
3
3
253
253
253
