<?xml version="1.0" encoding="UTF-8" standalone="no"?>
<svg
   xmlns:dc="http://purl.org/dc/elements/1.1/"
   xmlns:cc="http://creativecommons.org/ns#"
   xmlns:rdf="http://www.w3.org/1999/02/22-rdf-syntax-ns#"
   xmlns:svg="http://www.w3.org/2000/svg"
   xmlns="http://www.w3.org/2000/svg"
   xmlns:sodipodi="http://sodipodi.sourceforge.net/DTD/sodipodi-0.dtd"
   xmlns:inkscape="http://www.inkscape.org/namespaces/inkscape"
   width="800"
   height="600"
   viewBox="-418 -588 800 600"
   version="1.1"
   id="svg6"
   sodipodi:docname="pappe.svg"
   inkscape:version="0.92.1 r15371">
  <metadata
     id="metadata12">
    <rdf:RDF>
      <cc:Work
         rdf:about="">
        <dc:format>image/svg+xml</dc:format>
        <dc:type
           rdf:resource="http://purl.org/dc/dcmitype/StillImage" />
        <dc:title>OpenSCAD Model</dc:title>
      </cc:Work>
    </rdf:RDF>
  </metadata>
  <defs
     id="defs10" />
  <sodipodi:namedview
     pagecolor="#ffffff"
     bordercolor="#666666"
     borderopacity="1"
     objecttolerance="10"
     gridtolerance="10"
     guidetolerance="10"
     inkscape:pageopacity="0"
     inkscape:pageshadow="2"
     inkscape:window-width="1920"
     inkscape:window-height="1015"
     id="namedview8"
     showgrid="false"
     inkscape:zoom="0.78145694"
     inkscape:cx="301.58117"
     inkscape:cy="343.23041"
     inkscape:window-x="0"
     inkscape:window-y="0"
     inkscape:window-maximized="1"
     inkscape:current-layer="svg6"
     showguides="true"
     inkscape:guide-bbox="true"
     inkscape:snap-bbox="true"
     inkscape:snap-to-guides="true"
     inkscape:object-paths="true"
     inkscape:snap-intersection-paths="true"
     inkscape:snap-smooth-nodes="true"
     inkscape:snap-midpoints="true"
     inkscape:bbox-paths="true"
     inkscape:bbox-nodes="true"
     inkscape:snap-bbox-edge-midpoints="true"
     inkscape:snap-bbox-midpoints="true"
     inkscape:snap-object-midpoints="true"
     inkscape:snap-center="true"
     inkscape:snap-text-baseline="true"
     inkscape:snap-page="true" />
  <title
     id="title2">OpenSCAD Model</title>
  <path
     inkscape:connector-curvature="0"
     d="m -385.299,-65.098 0.558,-0.284 0.442,-0.442 0.284,-0.558 0.098,-0.618 v -10 h 0.5 v 10 l 0.098,0.618 0.284,0.558 0.442,0.442 0.558,0.284 0.618,0.098 h 28.833 l 0.618,-0.098 0.558,-0.284 0.442,-0.442 0.284,-0.558 0.098,-0.618 v -10 h 0.5 v 10 l 0.098,0.618 0.284,0.558 0.443,0.442 0.557,0.284 0.618,0.098 h 28.834 l 0.618,-0.098 0.557,-0.284 0.443,-0.442 0.284,-0.558 0.098,-0.618 v -10 h 0.5 v 10 l 0.098,0.618 0.284,0.558 0.442,0.442 0.558,0.284 0.618,0.098 h 28.833 l 0.618,-0.098 0.558,-0.284 0.442,-0.442 0.284,-0.558 0.098,-0.618 v -10 h 0.5 v 10 l 0.098,0.618 0.284,0.558 0.442,0.442 0.558,0.284 0.618,0.098 h 28.833 l 0.618,-0.098 0.558,-0.284 0.442,-0.442 0.284,-0.558 0.098,-0.618 v -10 h 0.5 v 10 l 0.098,0.618 0.284,0.558 0.443,0.442 0.557,0.284 0.618,0.098 h 28.834 l 0.618,-0.098 0.557,-0.284 0.443,-0.442 0.284,-0.558 0.098,-0.618 v -10 h 0.5 v 10 l 0.098,0.618 0.284,0.558 0.442,0.442 0.558,0.284 0.618,0.098 h 28.833 l 0.618,-0.098 0.558,-0.284 0.442,-0.442 0.284,-0.558 0.098,-0.618 v -10 h 0.5 v 10 l 0.098,0.618 0.284,0.558 0.442,0.442 0.558,0.284 0.618,0.098 h 28.8333 l 0.6181,-0.098 0.5575,-0.284 0.4425,-0.442 0.284,-0.558 0.0979,-0.618 v -10 h 0.5 v 10 l 0.0979,0.618 0.2841,0.558 0.4424,0.442 0.5576,0.284 0.618,0.098 h 28.8334 l 0.618,-0.098 0.5576,-0.284 0.4424,-0.442 0.2841,-0.558 0.0979,-0.618 v -10 h 0.5 v 10 l 0.0979,0.618 0.284,0.558 0.4425,0.442 0.5575,0.284 0.6181,0.098 h 32.083298 v -24 h -11.6667 v 1 H -106.3337 v -1 h -21.3333 v 1 h -12 v -1 h -21.3333 v 1 h -12 v -1 h -21.3337 v 1 h -12 v -1 h -21.333 v 1 h -12 v -1 H -261 v 1 h -12 v -1 h -21.334 v 1 h -12 v -1 h -21.333 v 1 h -12 v -1 H -361 v 1 h -12 v -1 h -21.334 v 1 h -12 v -1 H -418 v 24 h 32.083 z"
     id="path6883" />
  <path
     inkscape:connector-curvature="0"
     d="m -406.334,-42 h 12 v 1 H -373 v -1 h 12 v 1 h 21.333 v -1 h 12 v 1 h 21.333 v -1 h 12 v 1 H -273 v -1 h 12 v 1 h 21.333 v -1 h 12 v 1 h 21.333 v -1 h 12 v 1 h 21.3337 v -1 h 12 v 1 h 21.3333 v -1 h 12 v 1 h 21.3333 v -1 h 11.999998 v 1 h 11.6667 V -65 H -114.7503 l -0.6181,0.098 -0.5575,0.284 -0.4425,0.442 -0.284,0.558 -0.0979,0.618 v 10 h -0.5 v -10 l -0.0979,-0.618 -0.2841,-0.558 -0.4424,-0.442 -0.5576,-0.284 -0.618,-0.098 h -28.8334 l -0.618,0.098 -0.5576,0.284 -0.4424,0.442 -0.2841,0.558 -0.0979,0.618 v 10 h -0.5 v -10 l -0.0979,-0.618 -0.284,-0.558 -0.4425,-0.442 -0.5575,-0.284 -0.6181,-0.098 h -28.8333 l -0.618,0.098 -0.558,0.284 -0.442,0.442 -0.284,0.558 -0.098,0.618 v 10 h -0.5 v -10 l -0.098,-0.618 -0.284,-0.558 -0.442,-0.442 -0.558,-0.284 -0.618,-0.098 h -28.833 l -0.618,0.098 -0.558,0.284 -0.442,0.442 -0.284,0.558 -0.098,0.618 v 10 h -0.5 v -10 l -0.098,-0.618 -0.284,-0.558 -0.443,-0.442 -0.557,-0.284 -0.618,-0.098 h -28.834 l -0.618,0.098 -0.557,0.284 -0.443,0.442 -0.284,0.558 -0.098,0.618 v 10 h -0.5 v -10 l -0.098,-0.618 -0.284,-0.558 -0.442,-0.442 -0.558,-0.284 -0.618,-0.098 h -28.833 l -0.618,0.098 -0.558,0.284 -0.442,0.442 -0.284,0.558 -0.098,0.618 v 10 h -0.5 v -10 l -0.098,-0.618 -0.284,-0.558 -0.442,-0.442 -0.558,-0.284 -0.618,-0.098 h -28.833 l -0.618,0.098 -0.558,0.284 -0.442,0.442 -0.284,0.558 -0.098,0.618 v 10 h -0.5 v -10 l -0.098,-0.618 -0.284,-0.558 -0.443,-0.442 -0.557,-0.284 -0.618,-0.098 h -28.834 l -0.618,0.098 -0.557,0.284 -0.443,0.442 -0.284,0.558 -0.098,0.618 v 10 h -0.5 v -10 l -0.098,-0.618 -0.284,-0.558 -0.442,-0.442 -0.558,-0.284 -0.618,-0.098 h -28.833 l -0.618,0.098 -0.558,0.284 -0.442,0.442 -0.284,0.558 -0.098,0.618 v 10 h -0.5 v -10 l -0.098,-0.618 -0.284,-0.558 -0.442,-0.442 -0.558,-0.284 -0.618,-0.098 H -418 v 24 h 11.666 z"
     id="path6881" />
  <path
     inkscape:connector-curvature="0"
     d="m -406.334,6 h 12 V 7 H -373 V 6 h 12 v 1 h 21.333 V 6 h 12 v 1 h 21.333 V 6 h 12 V 7 H -273 V 6 h 12 v 1 h 21.333 V 6 h 12 v 1 h 21.333 V 6 h 12 v 1 h 21.3337 V 6 h 12 v 1 h 21.3333 V 6 h 12 v 1 h 21.3333 V 6 h 12.000001 v 1 h 11.6667 V -17 H -114.7503 l -0.6181,0.098 -0.5575,0.284 -0.4425,0.442 -0.284,0.558 -0.0979,0.618 v 10 h -0.5 v -10 l -0.0979,-0.618 -0.2841,-0.558 -0.4424,-0.442 -0.5576,-0.284 -0.618,-0.098 h -28.8334 l -0.618,0.098 -0.5576,0.284 -0.4424,0.442 -0.2841,0.558 -0.0979,0.618 v 10 h -0.5 v -10 l -0.0979,-0.618 -0.284,-0.558 -0.4425,-0.442 -0.5575,-0.284 -0.6181,-0.098 h -28.8333 l -0.618,0.098 -0.558,0.284 -0.442,0.442 -0.284,0.558 -0.098,0.618 v 10 h -0.5 v -10 l -0.098,-0.618 -0.284,-0.558 -0.442,-0.442 -0.558,-0.284 -0.618,-0.098 h -28.833 l -0.618,0.098 -0.558,0.284 -0.442,0.442 -0.284,0.558 -0.098,0.618 v 10 h -0.5 v -10 l -0.098,-0.618 -0.284,-0.558 -0.443,-0.442 -0.557,-0.284 -0.618,-0.098 h -28.834 l -0.618,0.098 -0.557,0.284 -0.443,0.442 -0.284,0.558 -0.098,0.618 v 10 h -0.5 v -10 l -0.098,-0.618 -0.284,-0.558 -0.442,-0.442 -0.558,-0.284 -0.618,-0.098 h -28.833 l -0.618,0.098 -0.558,0.284 -0.442,0.442 -0.284,0.558 -0.098,0.618 v 10 h -0.5 v -10 l -0.098,-0.618 -0.284,-0.558 -0.442,-0.442 -0.558,-0.284 -0.618,-0.098 h -28.833 l -0.618,0.098 -0.558,0.284 -0.442,0.442 -0.284,0.558 -0.098,0.618 v 10 h -0.5 v -10 l -0.098,-0.618 -0.284,-0.558 -0.443,-0.442 -0.557,-0.284 -0.618,-0.098 h -28.834 l -0.618,0.098 -0.557,0.284 -0.443,0.442 -0.284,0.558 -0.098,0.618 v 10 h -0.5 v -10 l -0.098,-0.618 -0.284,-0.558 -0.442,-0.442 -0.558,-0.284 -0.618,-0.098 h -28.833 l -0.618,0.098 -0.558,0.284 -0.442,0.442 -0.284,0.558 -0.098,0.618 v 10 h -0.5 v -10 l -0.098,-0.618 -0.284,-0.558 -0.442,-0.442 -0.558,-0.284 -0.618,-0.098 H -418 V 7 h 11.666 z"
     id="path6865" />
  <path
     inkscape:connector-curvature="0"
     d="m -385.299,-17.098 0.558,-0.284 0.442,-0.442 0.284,-0.558 0.098,-0.618 v -10 h 0.5 v 10 l 0.098,0.618 0.284,0.558 0.442,0.442 0.558,0.284 0.618,0.098 h 28.833 l 0.618,-0.098 0.558,-0.284 0.442,-0.442 0.284,-0.558 0.098,-0.618 v -10 h 0.5 v 10 l 0.098,0.618 0.284,0.558 0.443,0.442 0.557,0.284 0.618,0.098 h 28.834 l 0.618,-0.098 0.557,-0.284 0.443,-0.442 0.284,-0.558 0.098,-0.618 v -10 h 0.5 v 10 l 0.098,0.618 0.284,0.558 0.442,0.442 0.558,0.284 0.618,0.098 h 28.833 l 0.618,-0.098 0.558,-0.284 0.442,-0.442 0.284,-0.558 0.098,-0.618 v -10 h 0.5 v 10 l 0.098,0.618 0.284,0.558 0.442,0.442 0.558,0.284 0.618,0.098 h 28.833 l 0.618,-0.098 0.558,-0.284 0.442,-0.442 0.284,-0.558 0.098,-0.618 v -10 h 0.5 v 10 l 0.098,0.618 0.284,0.558 0.443,0.442 0.557,0.284 0.618,0.098 h 28.834 l 0.618,-0.098 0.557,-0.284 0.443,-0.442 0.284,-0.558 0.098,-0.618 v -10 h 0.5 v 10 l 0.098,0.618 0.284,0.558 0.442,0.442 0.558,0.284 0.618,0.098 h 28.833 l 0.618,-0.098 0.558,-0.284 0.442,-0.442 0.284,-0.558 0.098,-0.618 v -10 h 0.5 v 10 l 0.098,0.618 0.284,0.558 0.442,0.442 0.558,0.284 0.618,0.098 h 28.8333 l 0.6181,-0.098 0.5575,-0.284 0.4425,-0.442 0.284,-0.558 0.0979,-0.618 v -10 h 0.5 v 10 l 0.0979,0.618 0.2841,0.558 0.4424,0.442 0.5576,0.284 0.618,0.098 h 28.8334 l 0.618,-0.098 0.5576,-0.284 0.4424,-0.442 0.2841,-0.558 0.0979,-0.618 v -10 h 0.5 v 10 l 0.0979,0.618 0.284,0.558 0.4425,0.442 0.5575,0.284 0.6181,0.098 h 32.083301 v -24 h -11.6667 v 1 H -106.3337 v -1 h -21.3333 v 1 h -12 v -1 h -21.3333 v 1 h -12 v -1 h -21.3337 v 1 h -12 v -1 h -21.333 v 1 h -12 v -1 H -261 v 1 h -12 v -1 h -21.334 v 1 h -12 v -1 h -21.333 v 1 h -12 v -1 H -361 v 1 h -12 v -1 h -21.334 v 1 h -12 v -1 H -418 v 24 h 32.083 z"
     id="path6859" />
  <path
     inkscape:connector-curvature="0"
     d="m 121.676,-131.667 h -12 v -1 H 88.342 v 1 h -12 v -1 H 55.009 v 1 h -12 v -1 H 21.676 v 1 h -12 v -1 h -21.334 v 1 h -12 v -1 h -21.333 v 1 h -12 v -1 h -21.333 v 1 h -12 v -1 h -21.3337 v 1 h -12 v -1 h -21.3333 v 1 h -12 v -1 h -21.3333 v 1 h -12 v -1 h -11.6667 v 24 h 32.0833 l 0.6181,-0.098 0.5575,-0.284 0.4425,-0.442 0.284,-0.558 0.0979,-0.618 v -10 h 0.5 v 10 l 0.0979,0.618 0.2841,0.558 0.4424,0.442 0.5576,0.284 0.618,0.098 h 28.8334 l 0.618,-0.098 0.5576,-0.284 0.4424,-0.442 0.2841,-0.558 0.0979,-0.618 v -10 h 0.5 v 10 l 0.0979,0.618 0.284,0.558 0.4425,0.442 0.5575,0.284 0.6181,0.098 h 28.8333 l 0.618,-0.098 0.558,-0.284 0.442,-0.442 0.284,-0.558 0.098,-0.618 v -10 h 0.5 v 10 l 0.098,0.618 0.284,0.558 0.442,0.442 0.558,0.284 0.618,0.098 h 28.833 l 0.618,-0.098 0.558,-0.284 0.442,-0.442 0.284,-0.558 0.098,-0.618 v -10 h 0.5 v 10 l 0.098,0.618 0.284,0.558 0.443,0.442 0.557,0.284 0.618,0.098 h 28.834 l 0.618,-0.098 0.557,-0.284 0.443,-0.442 0.284,-0.558 0.098,-0.618 v -10 h 0.5 v 10 l 0.098,0.618 0.284,0.558 0.442,0.442 0.558,0.284 0.618,0.098 h 28.833 l 0.618,-0.098 0.558,-0.284 0.442,-0.442 0.284,-0.558 0.098,-0.618 v -10 h 0.5 v 10 l 0.098,0.618 0.284,0.558 0.442,0.442 0.558,0.284 0.618,0.098 h 28.833 l 0.618,-0.098 0.558,-0.284 0.442,-0.442 0.284,-0.558 0.098,-0.618 v -10 h 0.5 v 10 l 0.098,0.618 0.284,0.558 0.443,0.442 0.557,0.284 0.618,0.098 h 28.834 l 0.618,-0.098 0.557,-0.284 0.443,-0.442 0.284,-0.558 0.098,-0.618 v -10 h 0.5 v 10 l 0.098,0.618 0.284,0.558 0.442,0.442 0.558,0.284 0.618,0.098 h 28.833 l 0.618,-0.098 0.558,-0.284 0.442,-0.442 0.284,-0.558 0.098,-0.618 v -10 h 0.5 v 10 l 0.098,0.618 0.284,0.558 0.442,0.442 0.558,0.284 0.618,0.098 h 32.083 v -24 h -11.666 z"
     id="path6873" />
  <path
     inkscape:connector-curvature="0"
     d="m -201.992,-89 10e-4,-30.583 -0.098,-0.618 -0.284,-0.558 -0.442,-0.442 -0.558,-0.284 -0.618,-0.098 h -10.001 v -0.5 h 10.001 l 0.618,-0.098 0.558,-0.284 0.442,-0.443 0.284,-0.557 0.098,-0.618 v -28.834 l -0.098,-0.618 -0.284,-0.557 -0.442,-0.443 -0.558,-0.284 -0.618,-0.098 h -10.001 v -0.5 h 10.001 l 0.618,-0.098 0.558,-0.284 0.442,-0.442 0.284,-0.558 0.098,-0.618 v -28.833 l -0.098,-0.618 -0.284,-0.558 -0.442,-0.442 -0.558,-0.284 -0.618,-0.098 h -10.001 v -0.5 h 10.001 l 0.618,-0.098 0.558,-0.284 0.442,-0.442 0.284,-0.558 0.098,-0.618 v -28.833 l -0.098,-0.618 -0.284,-0.558 -0.442,-0.442 -0.558,-0.284 -0.618,-0.098 h -10.001 v -0.5 h 10.001 l 0.618,-0.098 0.558,-0.284 0.442,-0.443 0.284,-0.557 0.098,-0.618 v -28.834 l -0.098,-0.618 -0.284,-0.557 -0.442,-0.443 -0.558,-0.284 -0.618,-0.098 h -10.001 v -0.5 h 10.001 l 0.618,-0.098 0.558,-0.284 0.442,-0.442 0.284,-0.558 0.098,-0.618 v -28.833 l -0.098,-0.618 -0.284,-0.558 -0.442,-0.442 -0.558,-0.284 -0.618,-0.098 h -10.001 v -0.5 h 10.001 l 0.618,-0.098 0.558,-0.284 0.442,-0.442 0.284,-0.558 0.098,-0.618 v -28.833 l -0.098,-0.618 -0.284,-0.558 -0.442,-0.442 -0.558,-0.284 -0.618,-0.098 h -10.001 v -0.5 h 10.001 l 0.618,-0.098 0.558,-0.284 0.442,-0.443 0.284,-0.557 0.098,-0.618 v -28.834 l -0.098,-0.618 -0.284,-0.557 -0.442,-0.443 -0.558,-0.284 -0.618,-0.098 h -10.001 v -0.5 h 10.001 l 0.618,-0.098 0.558,-0.284 0.442,-0.442 0.284,-0.558 0.098,-0.618 v -28.833 l -0.098,-0.618 -0.284,-0.558 -0.442,-0.442 -0.558,-0.284 -0.618,-0.098 h -10.001 v -0.5 h 10.001 l 0.618,-0.098 0.558,-0.284 0.442,-0.442 0.284,-0.558 0.098,-0.618 v -28.833 l -0.098,-0.618 -0.284,-0.558 -0.442,-0.442 -0.558,-0.284 -0.618,-0.098 h -10.001 v -0.5 h 10.001 l 0.618,-0.098 0.558,-0.284 0.442,-0.443 0.284,-0.557 0.098,-0.618 v -28.834 l -0.098,-0.618 -0.284,-0.557 -0.442,-0.443 -0.558,-0.284 -0.618,-0.098 h -10.001 v -0.5 h 10.001 l 0.618,-0.098 0.558,-0.284 0.442,-0.442 0.284,-0.558 0.098,-0.618 v -28.833 l -0.098,-0.618 -0.284,-0.558 -0.442,-0.442 -0.558,-0.284 -0.618,-0.098 h -10.001 v -0.5 h 10.001 l 0.618,-0.0979 0.558,-0.2841 0.442,-0.4424 0.284,-0.5576 0.098,-0.618 v -28.8334 l -0.098,-0.618 -0.284,-0.5575 -0.442,-0.4425 -0.558,-0.2841 -0.618,-0.0978 h -10.001 v -0.5 h 10.001 l 0.618,-0.0979 0.558,-0.2841 0.442,-0.4425 0.284,-0.5575 0.098,-0.618 v -28.8334 l -0.098,-0.618 -0.284,-0.5576 -0.442,-0.4424 -0.558,-0.2841 -0.618,-0.0979 h -10.001 v -0.5 h 10.001 l 0.618,-0.0979 0.558,-0.284 0.442,-0.4425 0.284,-0.5575 0.098,-0.6181 -10e-4,-30.5833 h -24 v 499 z"
     id="path6885" />
  <path
     inkscape:connector-curvature="0"
     d="m -249.895,-523.4653 0.284,0.5575 0.442,0.4425 0.558,0.2841 0.618,0.0979 h 10.001 v 0.5 h -10.001 l -0.618,0.0978 -0.558,0.2841 -0.442,0.4425 -0.284,0.5575 -0.098,0.618 v 28.8334 l 0.098,0.618 0.284,0.5576 0.442,0.4424 0.558,0.2841 0.618,0.0979 h 10.001 v 0.5 h -10.001 l -0.618,0.098 -0.558,0.284 -0.442,0.442 -0.284,0.558 -0.098,0.618 v 28.833 l 0.098,0.618 0.284,0.558 0.442,0.442 0.558,0.284 0.618,0.098 h 10.001 v 0.5 h -10.001 l -0.618,0.098 -0.558,0.284 -0.442,0.443 -0.284,0.557 -0.098,0.618 v 28.834 l 0.098,0.618 0.284,0.557 0.442,0.443 0.558,0.284 0.618,0.098 h 10.001 v 0.5 h -10.001 l -0.618,0.098 -0.558,0.284 -0.442,0.442 -0.284,0.558 -0.098,0.618 v 28.833 l 0.098,0.618 0.284,0.558 0.442,0.442 0.558,0.284 0.618,0.098 h 10.001 v 0.5 h -10.001 l -0.618,0.098 -0.558,0.284 -0.442,0.442 -0.284,0.558 -0.098,0.618 v 28.833 l 0.098,0.618 0.284,0.558 0.442,0.442 0.558,0.284 0.618,0.098 h 10.001 v 0.5 h -10.001 l -0.618,0.098 -0.558,0.284 -0.442,0.443 -0.284,0.557 -0.098,0.618 v 28.834 l 0.098,0.618 0.284,0.557 0.442,0.443 0.558,0.284 0.618,0.098 h 10.001 v 0.5 h -10.001 l -0.618,0.098 -0.558,0.284 -0.442,0.442 -0.284,0.558 -0.098,0.618 v 28.833 l 0.098,0.618 0.284,0.558 0.442,0.442 0.558,0.284 0.618,0.098 h 10.001 v 0.5 h -10.001 l -0.618,0.098 -0.558,0.284 -0.442,0.442 -0.284,0.558 -0.098,0.618 v 28.833 l 0.098,0.618 0.284,0.558 0.442,0.442 0.558,0.284 0.618,0.098 h 10.001 v 0.5 h -10.001 l -0.618,0.098 -0.558,0.284 -0.442,0.443 -0.284,0.557 -0.098,0.618 v 28.834 l 0.098,0.618 0.284,0.557 0.442,0.443 0.558,0.284 0.618,0.098 h 10.001 v 0.5 h -10.001 l -0.618,0.098 -0.558,0.284 -0.442,0.442 -0.284,0.558 -0.098,0.618 v 28.833 l 0.098,0.618 0.284,0.558 0.442,0.442 0.558,0.284 0.618,0.098 h 10.001 v 0.5 h -10.001 l -0.618,0.098 -0.558,0.284 -0.442,0.442 -0.284,0.558 -0.098,0.618 v 28.833 l 0.098,0.618 0.284,0.558 0.442,0.442 0.558,0.284 0.618,0.098 h 10.001 v 0.5 h -10.001 l -0.618,0.098 -0.558,0.284 -0.442,0.443 -0.284,0.557 -0.098,0.618 v 28.834 l 0.098,0.618 0.284,0.557 0.442,0.443 0.558,0.284 0.618,0.098 h 10.001 v 0.5 h -10.001 l -0.618,0.098 -0.558,0.284 -0.442,0.442 -0.284,0.558 -0.098,0.618 0.001,30.583 h 24 v -499 h -24 l -0.001,30.5833 0.098,0.6181 0.284,0.5575 0.442,0.4425 0.558,0.284 0.618,0.0979 h 10.001 v 0.5 h -10.001 l -0.618,0.0979 -0.558,0.2841 -0.442,0.4424 -0.284,0.5576 -0.098,0.618 v 28.8334 z"
     id="path6879" />
  <path
     inkscape:connector-curvature="0"
     d="m -249.994,-89 0.001,-30.583 -0.098,-0.618 -0.284,-0.558 -0.442,-0.442 -0.558,-0.284 -0.618,-0.098 h -10.001 v -0.5 h 10.001 l 0.618,-0.098 0.558,-0.284 0.442,-0.443 0.284,-0.557 0.098,-0.618 v -28.834 l -0.098,-0.618 -0.284,-0.557 -0.442,-0.443 -0.558,-0.284 -0.618,-0.098 h -10.001 v -0.5 h 10.001 l 0.618,-0.098 0.558,-0.284 0.442,-0.442 0.284,-0.558 0.098,-0.618 v -28.833 l -0.098,-0.618 -0.284,-0.558 -0.442,-0.442 -0.558,-0.284 -0.618,-0.098 h -10.001 v -0.5 h 10.001 l 0.618,-0.098 0.558,-0.284 0.442,-0.442 0.284,-0.558 0.098,-0.618 v -28.833 l -0.098,-0.618 -0.284,-0.558 -0.442,-0.442 -0.558,-0.284 -0.618,-0.098 h -10.001 v -0.5 h 10.001 l 0.618,-0.098 0.558,-0.284 0.442,-0.443 0.284,-0.557 0.098,-0.618 v -28.834 l -0.098,-0.618 -0.284,-0.557 -0.442,-0.443 -0.558,-0.284 -0.618,-0.098 h -10.001 v -0.5 h 10.001 l 0.618,-0.098 0.558,-0.284 0.442,-0.442 0.284,-0.558 0.098,-0.618 v -28.833 l -0.098,-0.618 -0.284,-0.558 -0.442,-0.442 -0.558,-0.284 -0.618,-0.098 h -10.001 v -0.5 h 10.001 l 0.618,-0.098 0.558,-0.284 0.442,-0.442 0.284,-0.558 0.098,-0.618 v -28.833 l -0.098,-0.618 -0.284,-0.558 -0.442,-0.442 -0.558,-0.284 -0.618,-0.098 h -10.001 v -0.5 h 10.001 l 0.618,-0.098 0.558,-0.284 0.442,-0.443 0.284,-0.557 0.098,-0.618 v -28.834 l -0.098,-0.618 -0.284,-0.557 -0.442,-0.443 -0.558,-0.284 -0.618,-0.098 h -10.001 v -0.5 h 10.001 l 0.618,-0.098 0.558,-0.284 0.442,-0.442 0.284,-0.558 0.098,-0.618 v -28.833 l -0.098,-0.618 -0.284,-0.558 -0.442,-0.442 -0.558,-0.284 -0.618,-0.098 h -10.001 v -0.5 h 10.001 l 0.618,-0.098 0.558,-0.284 0.442,-0.442 0.284,-0.558 0.098,-0.618 v -28.833 l -0.098,-0.618 -0.284,-0.558 -0.442,-0.442 -0.558,-0.284 -0.618,-0.098 h -10.001 v -0.5 h 10.001 l 0.618,-0.098 0.558,-0.284 0.442,-0.443 0.284,-0.557 0.098,-0.618 v -28.834 l -0.098,-0.618 -0.284,-0.557 -0.442,-0.443 -0.558,-0.284 -0.618,-0.098 h -10.001 v -0.5 h 10.001 l 0.618,-0.098 0.558,-0.284 0.442,-0.442 0.284,-0.558 0.098,-0.618 v -28.833 l -0.098,-0.618 -0.284,-0.558 -0.442,-0.442 -0.558,-0.284 -0.618,-0.098 h -10.001 v -0.5 h 10.001 l 0.618,-0.0979 0.558,-0.2841 0.442,-0.4424 0.284,-0.5576 0.098,-0.618 v -28.8334 l -0.098,-0.618 -0.284,-0.5575 -0.442,-0.4425 -0.558,-0.2841 -0.618,-0.0978 h -10.001 v -0.5 h 10.001 l 0.618,-0.0979 0.558,-0.2841 0.442,-0.4425 0.284,-0.5575 0.098,-0.618 v -28.8334 l -0.098,-0.618 -0.284,-0.5576 -0.442,-0.4424 -0.558,-0.2841 -0.618,-0.0979 h -10.001 v -0.5 h 10.001 l 0.618,-0.0979 0.558,-0.284 0.442,-0.4425 0.284,-0.5575 0.098,-0.6181 -0.001,-30.5833 h -24 v 499 z"
     id="path6877" />
  <path
     inkscape:connector-curvature="0"
     d="m -297.897,-523.4653 0.284,0.5575 0.442,0.4425 0.558,0.2841 0.618,0.0979 h 10.001 v 0.5 h -10.001 l -0.618,0.0978 -0.558,0.2841 -0.442,0.4425 -0.284,0.5575 -0.098,0.618 v 28.8334 l 0.098,0.618 0.284,0.5576 0.442,0.4424 0.558,0.2841 0.618,0.0979 h 10.001 v 0.5 h -10.001 l -0.618,0.098 -0.558,0.284 -0.442,0.442 -0.284,0.558 -0.098,0.618 v 28.833 l 0.098,0.618 0.284,0.558 0.442,0.442 0.558,0.284 0.618,0.098 h 10.001 v 0.5 h -10.001 l -0.618,0.098 -0.558,0.284 -0.442,0.443 -0.284,0.557 -0.098,0.618 v 28.834 l 0.098,0.618 0.284,0.557 0.442,0.443 0.558,0.284 0.618,0.098 h 10.001 v 0.5 h -10.001 l -0.618,0.098 -0.558,0.284 -0.442,0.442 -0.284,0.558 -0.098,0.618 v 28.833 l 0.098,0.618 0.284,0.558 0.442,0.442 0.558,0.284 0.618,0.098 h 10.001 v 0.5 h -10.001 l -0.618,0.098 -0.558,0.284 -0.442,0.442 -0.284,0.558 -0.098,0.618 v 28.833 l 0.098,0.618 0.284,0.558 0.442,0.442 0.558,0.284 0.618,0.098 h 10.001 v 0.5 h -10.001 l -0.618,0.098 -0.558,0.284 -0.442,0.443 -0.284,0.557 -0.098,0.618 v 28.834 l 0.098,0.618 0.284,0.557 0.442,0.443 0.558,0.284 0.618,0.098 h 10.001 v 0.5 h -10.001 l -0.618,0.098 -0.558,0.284 -0.442,0.442 -0.284,0.558 -0.098,0.618 v 28.833 l 0.098,0.618 0.284,0.558 0.442,0.442 0.558,0.284 0.618,0.098 h 10.001 v 0.5 h -10.001 l -0.618,0.098 -0.558,0.284 -0.442,0.442 -0.284,0.558 -0.098,0.618 v 28.833 l 0.098,0.618 0.284,0.558 0.442,0.442 0.558,0.284 0.618,0.098 h 10.001 v 0.5 h -10.001 l -0.618,0.098 -0.558,0.284 -0.442,0.443 -0.284,0.557 -0.098,0.618 v 28.834 l 0.098,0.618 0.284,0.557 0.442,0.443 0.558,0.284 0.618,0.098 h 10.001 v 0.5 h -10.001 l -0.618,0.098 -0.558,0.284 -0.442,0.442 -0.284,0.558 -0.098,0.618 v 28.833 l 0.098,0.618 0.284,0.558 0.442,0.442 0.558,0.284 0.618,0.098 h 10.001 v 0.5 h -10.001 l -0.618,0.098 -0.558,0.284 -0.442,0.442 -0.284,0.558 -0.098,0.618 v 28.833 l 0.098,0.618 0.284,0.558 0.442,0.442 0.558,0.284 0.618,0.098 h 10.001 v 0.5 h -10.001 l -0.618,0.098 -0.558,0.284 -0.442,0.443 -0.284,0.557 -0.098,0.618 v 28.834 l 0.098,0.618 0.284,0.557 0.442,0.443 0.558,0.284 0.618,0.098 h 10.001 v 0.5 h -10.001 l -0.618,0.098 -0.558,0.284 -0.442,0.442 -0.284,0.558 -0.098,0.618 10e-4,30.583 h 24 v -499 h -24 l -10e-4,30.5833 0.098,0.6181 0.284,0.5575 0.442,0.4425 0.558,0.284 0.618,0.0979 h 10.001 v 0.5 h -10.001 l -0.618,0.0979 -0.558,0.2841 -0.442,0.4424 -0.284,0.5576 -0.098,0.618 v 28.8334 z"
     id="path6871" />
  <path
     inkscape:connector-curvature="0"
     d="m -417.999,-588 -10e-4,30.583 0.098,0.618 0.284,0.558 0.442,0.442 0.558,0.284 0.618,0.098 h 10.001 v 0.5 H -416 l -0.618,0.098 -0.558,0.284 -0.442,0.443 -0.284,0.557 -0.098,0.618 v 28.834 l 0.098,0.618 0.284,0.557 0.442,0.443 0.558,0.284 0.618,0.098 h 10.001 v 0.5 H -416 l -0.618,0.098 -0.558,0.284 -0.442,0.442 -0.284,0.558 -0.098,0.618 v 28.833 l 0.098,0.618 0.284,0.558 0.442,0.442 0.558,0.284 0.618,0.098 h 10.001 v 0.5 H -416 l -0.618,0.098 -0.558,0.284 -0.442,0.442 -0.284,0.558 -0.098,0.618 v 28.833 l 0.098,0.618 0.284,0.558 0.442,0.442 0.558,0.284 0.618,0.098 h 10.001 v 0.5 H -416 l -0.618,0.098 -0.558,0.284 -0.442,0.443 -0.284,0.557 -0.098,0.618 v 28.834 l 0.098,0.618 0.284,0.557 0.442,0.443 0.558,0.284 0.618,0.098 h 10.001 v 0.5 H -416 l -0.618,0.098 -0.558,0.284 -0.442,0.442 -0.284,0.558 -0.098,0.618 v 28.833 l 0.098,0.618 0.284,0.558 0.442,0.442 0.558,0.284 0.618,0.098 h 10.001 v 0.5 H -416 l -0.618,0.098 -0.558,0.284 -0.442,0.442 -0.284,0.558 -0.098,0.618 v 28.833 l 0.098,0.618 0.284,0.558 0.442,0.442 0.558,0.284 0.618,0.098 h 10.001 v 0.5 H -416 l -0.618,0.098 -0.558,0.284 -0.442,0.443 -0.284,0.557 -0.098,0.618 v 28.834 l 0.098,0.618 0.284,0.557 0.442,0.443 0.558,0.284 0.618,0.098 h 10.001 v 0.5 H -416 l -0.618,0.098 -0.558,0.284 -0.442,0.442 -0.284,0.558 -0.098,0.618 v 28.833 l 0.098,0.618 0.284,0.558 0.442,0.442 0.558,0.284 0.618,0.098 h 10.001 v 0.5 H -416 l -0.618,0.098 -0.558,0.284 -0.442,0.442 -0.284,0.558 -0.098,0.618 v 28.833 l 0.098,0.618 0.284,0.558 0.442,0.442 0.558,0.284 0.618,0.098 h 10.001 v 0.5 H -416 l -0.618,0.098 -0.558,0.284 -0.442,0.443 -0.284,0.557 -0.098,0.618 v 28.834 l 0.098,0.618 0.284,0.557 0.442,0.443 0.558,0.284 0.618,0.098 h 10.001 v 0.5 H -416 l -0.618,0.098 -0.558,0.284 -0.442,0.442 -0.284,0.558 -0.098,0.618 v 28.833 l 0.098,0.618 0.284,0.558 0.442,0.442 0.558,0.284 0.618,0.098 h 10.001 v 0.5 H -416 l -0.618,0.0979 -0.558,0.2841 -0.442,0.4424 -0.284,0.5576 -0.098,0.618 v 28.8334 l 0.098,0.618 0.284,0.5575 0.442,0.4425 0.558,0.2841 0.618,0.0978 h 10.001 v 0.5 H -416 l -0.618,0.0979 -0.558,0.2841 -0.442,0.4425 -0.284,0.5575 -0.098,0.618 v 28.8334 l 0.098,0.618 0.284,0.5576 0.442,0.4424 0.558,0.2841 0.618,0.0979 h 10.001 v 0.5 H -416 l -0.618,0.0979 -0.558,0.284 -0.442,0.4425 -0.284,0.5575 -0.098,0.6181 10e-4,30.5833 h 24 v -499 z"
     id="path6869" />
  <path
     inkscape:connector-curvature="0"
     d="m -370.096,-153.5347 -0.284,-0.5575 -0.442,-0.4425 -0.558,-0.2841 -0.618,-0.0979 h -10.001 v -0.5 h 10.001 l 0.618,-0.0978 0.558,-0.28409 0.442,-0.4425 0.284,-0.5575 0.098,-0.618 V -186.25 l -0.098,-0.618 -0.284,-0.5576 -0.442,-0.4424 -0.558,-0.2841 -0.618,-0.0979 h -10.001 v -0.5 h 10.001 l 0.618,-0.098 0.558,-0.284 0.442,-0.442 0.284,-0.558 0.098,-0.618 v -28.833 l -0.098,-0.618 -0.284,-0.558 -0.442,-0.442 -0.558,-0.284 -0.618,-0.098 h -10.001 v -0.5 h 10.001 l 0.618,-0.098 0.558,-0.284 0.442,-0.443 0.284,-0.557 0.098,-0.618 v -28.834 l -0.098,-0.618 -0.284,-0.557 -0.442,-0.443 -0.558,-0.284 -0.618,-0.098 h -10.001 v -0.5 h 10.001 l 0.618,-0.098 0.558,-0.284 0.442,-0.442 0.284,-0.558 0.098,-0.618 v -28.833 l -0.098,-0.618 -0.284,-0.558 -0.442,-0.442 -0.558,-0.284 -0.618,-0.098 h -10.001 v -0.5 h 10.001 l 0.618,-0.098 0.558,-0.284 0.442,-0.442 0.284,-0.558 0.098,-0.618 v -28.833 l -0.098,-0.618 -0.284,-0.558 -0.442,-0.442 -0.558,-0.284 -0.618,-0.098 h -10.001 v -0.5 h 10.001 l 0.618,-0.098 0.558,-0.284 0.442,-0.443 0.284,-0.557 0.098,-0.618 v -28.834 l -0.098,-0.618 -0.284,-0.557 -0.442,-0.443 -0.558,-0.284 -0.618,-0.098 h -10.001 v -0.5 h 10.001 l 0.618,-0.098 0.558,-0.284 0.442,-0.442 0.284,-0.558 0.098,-0.618 v -28.833 l -0.098,-0.618 -0.284,-0.558 -0.442,-0.442 -0.558,-0.284 -0.618,-0.098 h -10.001 v -0.5 h 10.001 l 0.618,-0.098 0.558,-0.284 0.442,-0.442 0.284,-0.558 0.098,-0.618 v -28.833 l -0.098,-0.618 -0.284,-0.558 -0.442,-0.442 -0.558,-0.284 -0.618,-0.098 h -10.001 v -0.5 h 10.001 l 0.618,-0.098 0.558,-0.284 0.442,-0.443 0.284,-0.557 0.098,-0.618 v -28.834 l -0.098,-0.618 -0.284,-0.557 -0.442,-0.443 -0.558,-0.284 -0.618,-0.098 h -10.001 v -0.5 h 10.001 l 0.618,-0.098 0.558,-0.284 0.442,-0.442 0.284,-0.558 0.098,-0.618 v -28.833 l -0.098,-0.618 -0.284,-0.558 -0.442,-0.442 -0.558,-0.284 -0.618,-0.098 h -10.001 v -0.5 h 10.001 l 0.618,-0.098 0.558,-0.284 0.442,-0.442 0.284,-0.558 0.098,-0.618 v -28.833 l -0.098,-0.618 -0.284,-0.558 -0.442,-0.442 -0.558,-0.284 -0.618,-0.098 h -10.001 v -0.5 h 10.001 l 0.618,-0.098 0.558,-0.284 0.442,-0.443 0.284,-0.557 0.098,-0.618 v -28.834 l -0.098,-0.618 -0.284,-0.557 -0.442,-0.443 -0.558,-0.284 -0.618,-0.098 h -10.001 v -0.5 h 10.001 l 0.618,-0.098 0.558,-0.284 0.442,-0.442 0.284,-0.558 0.098,-0.618 -0.001,-30.583 h -24 v 498.999995 h 24 l 0.001,-30.583295 -0.098,-0.6181 -0.284,-0.55751 -0.442,-0.44249 -0.558,-0.28401 -0.618,-0.0979 h -10.001 v -0.5 h 10.001 l 0.618,-0.0979 0.558,-0.28411 0.442,-0.44239 0.284,-0.55761 0.098,-0.61799 v -28.8334 z"
     id="path6863" />
  <path
     inkscape:connector-curvature="0"
     d="m -369.997,-588 -10e-4,30.583 0.098,0.618 0.284,0.558 0.442,0.442 0.558,0.284 0.618,0.098 h 10.001 v 0.5 h -10.001 l -0.618,0.098 -0.558,0.284 -0.442,0.443 -0.284,0.557 -0.098,0.618 v 28.834 l 0.098,0.618 0.284,0.557 0.442,0.443 0.558,0.284 0.618,0.098 h 10.001 v 0.5 h -10.001 l -0.618,0.098 -0.558,0.284 -0.442,0.442 -0.284,0.558 -0.098,0.618 v 28.833 l 0.098,0.618 0.284,0.558 0.442,0.442 0.558,0.284 0.618,0.098 h 10.001 v 0.5 h -10.001 l -0.618,0.098 -0.558,0.284 -0.442,0.442 -0.284,0.558 -0.098,0.618 v 28.833 l 0.098,0.618 0.284,0.558 0.442,0.442 0.558,0.284 0.618,0.098 h 10.001 v 0.5 h -10.001 l -0.618,0.098 -0.558,0.284 -0.442,0.443 -0.284,0.557 -0.098,0.618 v 28.834 l 0.098,0.618 0.284,0.557 0.442,0.443 0.558,0.284 0.618,0.098 h 10.001 v 0.5 h -10.001 l -0.618,0.098 -0.558,0.284 -0.442,0.442 -0.284,0.558 -0.098,0.618 v 28.833 l 0.098,0.618 0.284,0.558 0.442,0.442 0.558,0.284 0.618,0.098 h 10.001 v 0.5 h -10.001 l -0.618,0.098 -0.558,0.284 -0.442,0.442 -0.284,0.558 -0.098,0.618 v 28.833 l 0.098,0.618 0.284,0.558 0.442,0.442 0.558,0.284 0.618,0.098 h 10.001 v 0.5 h -10.001 l -0.618,0.098 -0.558,0.284 -0.442,0.443 -0.284,0.557 -0.098,0.618 v 28.834 l 0.098,0.618 0.284,0.557 0.442,0.443 0.558,0.284 0.618,0.098 h 10.001 v 0.5 h -10.001 l -0.618,0.098 -0.558,0.284 -0.442,0.442 -0.284,0.558 -0.098,0.618 v 28.833 l 0.098,0.618 0.284,0.558 0.442,0.442 0.558,0.284 0.618,0.098 h 10.001 v 0.5 h -10.001 l -0.618,0.098 -0.558,0.284 -0.442,0.442 -0.284,0.558 -0.098,0.618 v 28.833 l 0.098,0.618 0.284,0.558 0.442,0.442 0.558,0.284 0.618,0.098 h 10.001 v 0.5 h -10.001 l -0.618,0.098 -0.558,0.284 -0.442,0.443 -0.284,0.557 -0.098,0.618 v 28.834 l 0.098,0.618 0.284,0.557 0.442,0.443 0.558,0.284 0.618,0.098 h 10.001 v 0.5 h -10.001 l -0.618,0.098 -0.558,0.284 -0.442,0.442 -0.284,0.558 -0.098,0.618 v 28.833 l 0.098,0.618 0.284,0.558 0.442,0.442 0.558,0.284 0.618,0.098 h 10.001 v 0.5 h -10.001 l -0.618,0.0979 -0.558,0.2841 -0.442,0.4424 -0.284,0.5576 -0.098,0.618 v 28.83339 l 0.098,0.618 0.284,0.5575 0.442,0.4425 0.558,0.2841 0.618,0.0978 h 10.001 v 0.5 h -10.001 l -0.618,0.0979 -0.558,0.2841 -0.442,0.4425 -0.284,0.5575 -0.098,0.618 v 28.8334 l 0.098,0.618 0.284,0.5576 0.442,0.4424 0.558,0.2841 0.618,0.0979 h 10.001 v 0.5 h -10.001 l -0.618,0.0979 -0.558,0.284 -0.442,0.4425 -0.284,0.5575 -0.098,0.6181 10e-4,30.583305 h 24 V -588 Z"
     id="path6861" />
  <path
     inkscape:connector-curvature="0"
     d="m -322.094,-153.5347 -0.284,-0.5575 -0.442,-0.4425 -0.558,-0.2841 -0.618,-0.0979 h -10.001 v -0.5 h 10.001 l 0.618,-0.0978 0.558,-0.28409 0.442,-0.4425 0.284,-0.5575 0.098,-0.618 V -186.25 l -0.098,-0.618 -0.284,-0.5576 -0.442,-0.4424 -0.558,-0.2841 -0.618,-0.0979 h -10.001 v -0.5 h 10.001 l 0.618,-0.098 0.558,-0.284 0.442,-0.442 0.284,-0.558 0.098,-0.618 v -28.833 l -0.098,-0.618 -0.284,-0.558 -0.442,-0.442 -0.558,-0.284 -0.618,-0.098 h -10.001 v -0.5 h 10.001 l 0.618,-0.098 0.558,-0.284 0.442,-0.443 0.284,-0.557 0.098,-0.618 v -28.834 l -0.098,-0.618 -0.284,-0.557 -0.442,-0.443 -0.558,-0.284 -0.618,-0.098 h -10.001 v -0.5 h 10.001 l 0.618,-0.098 0.558,-0.284 0.442,-0.442 0.284,-0.558 0.098,-0.618 v -28.833 l -0.098,-0.618 -0.284,-0.558 -0.442,-0.442 -0.558,-0.284 -0.618,-0.098 h -10.001 v -0.5 h 10.001 l 0.618,-0.098 0.558,-0.284 0.442,-0.442 0.284,-0.558 0.098,-0.618 v -28.833 l -0.098,-0.618 -0.284,-0.558 -0.442,-0.442 -0.558,-0.284 -0.618,-0.098 h -10.001 v -0.5 h 10.001 l 0.618,-0.098 0.558,-0.284 0.442,-0.443 0.284,-0.557 0.098,-0.618 v -28.834 l -0.098,-0.618 -0.284,-0.557 -0.442,-0.443 -0.558,-0.284 -0.618,-0.098 h -10.001 v -0.5 h 10.001 l 0.618,-0.098 0.558,-0.284 0.442,-0.442 0.284,-0.558 0.098,-0.618 v -28.833 l -0.098,-0.618 -0.284,-0.558 -0.442,-0.442 -0.558,-0.284 -0.618,-0.098 h -10.001 v -0.5 h 10.001 l 0.618,-0.098 0.558,-0.284 0.442,-0.442 0.284,-0.558 0.098,-0.618 v -28.833 l -0.098,-0.618 -0.284,-0.558 -0.442,-0.442 -0.558,-0.284 -0.618,-0.098 h -10.001 v -0.5 h 10.001 l 0.618,-0.098 0.558,-0.284 0.442,-0.443 0.284,-0.557 0.098,-0.618 v -28.834 l -0.098,-0.618 -0.284,-0.557 -0.442,-0.443 -0.558,-0.284 -0.618,-0.098 h -10.001 v -0.5 h 10.001 l 0.618,-0.098 0.558,-0.284 0.442,-0.442 0.284,-0.558 0.098,-0.618 v -28.833 l -0.098,-0.618 -0.284,-0.558 -0.442,-0.442 -0.558,-0.284 -0.618,-0.098 h -10.001 v -0.5 h 10.001 l 0.618,-0.098 0.558,-0.284 0.442,-0.442 0.284,-0.558 0.098,-0.618 v -28.833 l -0.098,-0.618 -0.284,-0.558 -0.442,-0.442 -0.558,-0.284 -0.618,-0.098 h -10.001 v -0.5 h 10.001 l 0.618,-0.098 0.558,-0.284 0.442,-0.443 0.284,-0.557 0.098,-0.618 v -28.834 l -0.098,-0.618 -0.284,-0.557 -0.442,-0.443 -0.558,-0.284 -0.618,-0.098 h -10.001 v -0.5 h 10.001 l 0.618,-0.098 0.558,-0.284 0.442,-0.442 0.284,-0.558 0.098,-0.618 -0.001,-30.583 h -24 v 498.999995 h 24 l 0.001,-30.583295 -0.098,-0.6181 -0.284,-0.55751 -0.442,-0.44249 -0.558,-0.28401 -0.618,-0.0979 h -10.001 v -0.5 h 10.001 l 0.618,-0.0979 0.558,-0.28411 0.442,-0.44239 0.284,-0.55761 0.098,-0.61799 v -28.8334 z"
     id="path6857" />
  <path
     inkscape:connector-curvature="0"
     d="m -321.995,-588 -10e-4,30.583 0.098,0.618 0.284,0.558 0.442,0.442 0.558,0.284 0.618,0.098 h 10.001 v 0.5 h -10.001 l -0.618,0.098 -0.558,0.284 -0.442,0.443 -0.284,0.557 -0.098,0.618 v 28.834 l 0.098,0.618 0.284,0.557 0.442,0.443 0.558,0.284 0.618,0.098 h 10.001 v 0.5 h -10.001 l -0.618,0.098 -0.558,0.284 -0.442,0.442 -0.284,0.558 -0.098,0.618 v 28.833 l 0.098,0.618 0.284,0.558 0.442,0.442 0.558,0.284 0.618,0.098 h 10.001 v 0.5 h -10.001 l -0.618,0.098 -0.558,0.284 -0.442,0.442 -0.284,0.558 -0.098,0.618 v 28.833 l 0.098,0.618 0.284,0.558 0.442,0.442 0.558,0.284 0.618,0.098 h 10.001 v 0.5 h -10.001 l -0.618,0.098 -0.558,0.284 -0.442,0.443 -0.284,0.557 -0.098,0.618 v 28.834 l 0.098,0.618 0.284,0.557 0.442,0.443 0.558,0.284 0.618,0.098 h 10.001 v 0.5 h -10.001 l -0.618,0.098 -0.558,0.284 -0.442,0.442 -0.284,0.558 -0.098,0.618 v 28.833 l 0.098,0.618 0.284,0.558 0.442,0.442 0.558,0.284 0.618,0.098 h 10.001 v 0.5 h -10.001 l -0.618,0.098 -0.558,0.284 -0.442,0.442 -0.284,0.558 -0.098,0.618 v 28.833 l 0.098,0.618 0.284,0.558 0.442,0.442 0.558,0.284 0.618,0.098 h 10.001 v 0.5 h -10.001 l -0.618,0.098 -0.558,0.284 -0.442,0.443 -0.284,0.557 -0.098,0.618 v 28.834 l 0.098,0.618 0.284,0.557 0.442,0.443 0.558,0.284 0.618,0.098 h 10.001 v 0.5 h -10.001 l -0.618,0.098 -0.558,0.284 -0.442,0.442 -0.284,0.558 -0.098,0.618 v 28.833 l 0.098,0.618 0.284,0.558 0.442,0.442 0.558,0.284 0.618,0.098 h 10.001 v 0.5 h -10.001 l -0.618,0.098 -0.558,0.284 -0.442,0.442 -0.284,0.558 -0.098,0.618 v 28.833 l 0.098,0.618 0.284,0.558 0.442,0.442 0.558,0.284 0.618,0.098 h 10.001 v 0.5 h -10.001 l -0.618,0.098 -0.558,0.284 -0.442,0.443 -0.284,0.557 -0.098,0.618 v 28.834 l 0.098,0.618 0.284,0.557 0.442,0.443 0.558,0.284 0.618,0.098 h 10.001 v 0.5 h -10.001 l -0.618,0.098 -0.558,0.284 -0.442,0.442 -0.284,0.558 -0.098,0.618 v 28.833 l 0.098,0.618 0.284,0.558 0.442,0.442 0.558,0.284 0.618,0.098 h 10.001 v 0.5 h -10.001 l -0.618,0.0979 -0.558,0.2841 -0.442,0.4424 -0.284,0.5576 -0.098,0.618 v 28.83339 l 0.098,0.618 0.284,0.5575 0.442,0.4425 0.558,0.2841 0.618,0.0978 h 10.001 v 0.5 h -10.001 l -0.618,0.0979 -0.558,0.2841 -0.442,0.4425 -0.284,0.5575 -0.098,0.618 v 28.8334 l 0.098,0.618 0.284,0.5576 0.442,0.4424 0.558,0.2841 0.618,0.0979 h 10.001 v 0.5 h -10.001 l -0.618,0.0979 -0.558,0.284 -0.442,0.4425 -0.284,0.5575 -0.098,0.6181 10e-4,30.583305 h 24 V -588 Z"
     id="path6853" />
  <path
     inkscape:connector-curvature="0"
     d="m -178.089,-285.368 -0.284,-0.558 -0.442,-0.442 -0.558,-0.284 -0.618,-0.098 h -10 v -0.5 h 10 l 0.618,-0.098 0.558,-0.284 0.442,-0.442 0.284,-0.558 0.098,-0.618 v -28.833 l -0.098,-0.618 -0.284,-0.558 -0.442,-0.442 -0.558,-0.284 -0.618,-0.098 h -10 v -0.5 h 10 l 0.618,-0.098 0.558,-0.284 0.442,-0.443 0.284,-0.557 0.098,-0.618 v -28.834 l -0.098,-0.618 -0.284,-0.557 -0.442,-0.443 -0.558,-0.284 -0.618,-0.098 h -10 v -0.5 h 10 l 0.618,-0.098 0.558,-0.284 0.442,-0.442 0.284,-0.558 0.098,-0.618 v -28.833 l -0.098,-0.618 -0.284,-0.558 -0.442,-0.442 -0.558,-0.284 -0.618,-0.098 h -10 v -0.5 h 10 l 0.618,-0.098 0.558,-0.284 0.442,-0.442 0.284,-0.558 0.098,-0.618 v -28.833 l -0.098,-0.618 -0.284,-0.558 -0.442,-0.442 -0.558,-0.284 -0.618,-0.098 h -10 v -0.5 h 10 l 0.618,-0.098 0.558,-0.284 0.442,-0.443 0.284,-0.557 0.098,-0.618 v -28.834 l -0.098,-0.618 -0.284,-0.557 -0.442,-0.443 -0.558,-0.284 -0.618,-0.098 h -10 v -0.5 h 10 l 0.618,-0.098 0.558,-0.284 0.442,-0.442 0.284,-0.558 0.098,-0.618 v -28.833 l -0.098,-0.618 -0.284,-0.558 -0.442,-0.442 -0.558,-0.284 -0.618,-0.098 h -10 v -0.5 h 10 l 0.618,-0.098 0.558,-0.284 0.442,-0.442 0.284,-0.558 0.098,-0.618 v -28.8333 l -0.098,-0.6181 -0.284,-0.5575 -0.442,-0.4425 -0.558,-0.284 -0.618,-0.0979 h -10 v -0.5 h 10 l 0.618,-0.0979 0.558,-0.2841 0.442,-0.4424 0.284,-0.5576 0.098,-0.618 v -28.8334 l -0.098,-0.618 -0.284,-0.5576 -0.442,-0.4424 -0.558,-0.2841 -0.618,-0.0979 h -10 v -0.5 h 10 l 0.618,-0.0979 0.558,-0.284 0.442,-0.4425 0.284,-0.5575 0.098,-0.6181 V -588 h -24 v 11.6667 h 1 v 12 h -1 V -543 h 1 v 12 h -1 v 21.3333 h 1 v 12 h -1 v 21.3337 h 1 v 12 h -1 V -443 h 1 v 12 h -1 v 21.333 h 1 v 12 h -1 v 21.334 h 1 v 12 h -1 V -343 h 1 v 12 h -1 v 21.333 h 1 v 12 h -1 v 21.334 h 1 v 12 h -1 v 11.666 h 24 v -32.083 z"
     id="path6875" />
  <path
     inkscape:connector-curvature="0"
     d="m -154.08899,-285.368 -0.284,-0.558 -0.442,-0.442 -0.558,-0.284 -0.618,-0.098 H -165.991 v -0.5 h 10.00001 l 0.618,-0.098 0.558,-0.284 0.442,-0.442 0.284,-0.558 0.098,-0.618 v -28.833 l -0.098,-0.618 -0.284,-0.558 -0.442,-0.442 -0.558,-0.284 -0.618,-0.098 H -165.991 v -0.5 h 10.00001 l 0.618,-0.098 0.558,-0.284 0.442,-0.443 0.284,-0.557 0.098,-0.618 v -28.834 l -0.098,-0.618 -0.284,-0.557 -0.442,-0.443 -0.558,-0.284 -0.618,-0.098 H -165.991 v -0.5 h 10.00001 l 0.618,-0.098 0.558,-0.284 0.442,-0.442 0.284,-0.558 0.098,-0.618 v -28.833 l -0.098,-0.618 -0.284,-0.558 -0.442,-0.442 -0.558,-0.284 -0.618,-0.098 H -165.991 v -0.5 h 10.00001 l 0.618,-0.098 0.558,-0.284 0.442,-0.442 0.284,-0.558 0.098,-0.618 v -28.833 l -0.098,-0.618 -0.284,-0.558 -0.442,-0.442 -0.558,-0.284 -0.618,-0.098 H -165.991 v -0.5 h 10.00001 l 0.618,-0.098 0.558,-0.284 0.442,-0.443 0.284,-0.557 0.098,-0.618 v -28.834 l -0.098,-0.618 -0.284,-0.557 -0.442,-0.443 -0.558,-0.284 -0.618,-0.098 H -165.991 v -0.5 h 10.00001 l 0.618,-0.098 0.558,-0.284 0.442,-0.442 0.284,-0.558 0.098,-0.618 v -28.833 l -0.098,-0.618 -0.284,-0.558 -0.442,-0.442 -0.558,-0.284 -0.618,-0.098 H -165.991 v -0.5 h 10.00001 l 0.618,-0.098 0.558,-0.284 0.442,-0.442 0.284,-0.558 0.098,-0.618 v -28.8333 l -0.098,-0.6181 -0.284,-0.5575 -0.442,-0.4425 -0.558,-0.284 -0.618,-0.0979 H -165.991 v -0.5 h 10.00001 l 0.618,-0.0979 0.558,-0.2841 0.442,-0.4424 0.284,-0.5576 0.098,-0.618 v -28.8334 l -0.098,-0.618 -0.284,-0.5576 -0.442,-0.4424 -0.558,-0.2841 -0.618,-0.0979 H -165.991 v -0.5 h 10.00001 l 0.618,-0.0979 0.558,-0.284 0.442,-0.4425 0.284,-0.5575 0.098,-0.6181 V -588 H -177.991 v 11.6667 h 1 v 12 h -1 V -543 h 1 v 12 h -1 v 21.3333 h 1 v 12 h -1 v 21.3337 h 1 v 12 h -1 V -443 h 1 v 12 h -1 v 21.333 h 1 v 12 h -1 v 21.334 h 1 v 12 h -1 V -343 h 1 v 12 h -1 v 21.333 h 1 v 12 h -1 v 21.334 h 1 v 12 h -1 v 11.666 h 24.00001 v -32.083 z"
     id="path6867" />
  <path
     inkscape:connector-curvature="0"
     d="m -130.991,-264.333 v -12 h 1 v -21.334 h -1 v -12 h 1 V -331 h -1 v -12 h 1 v -21.333 h -1 v -12 h 1 v -21.334 h -1 v -12 h 1 V -431 h -1 v -12 h 1 v -21.333 h -1 v -12 h 1 v -21.3337 h -1 v -12 h 1 V -531 h -1 v -12 h 1 v -21.3333 h -1 v -12 h 1 V -588 h -24 v 32.0833 l 0.098,0.6181 0.284,0.5575 0.442,0.4425 0.558,0.284 0.618,0.0979 h 10 v 0.5 h -10 l -0.618,0.0979 -0.558,0.2841 -0.442,0.4424 -0.284,0.5576 -0.098,0.618 v 28.8334 l 0.098,0.618 0.284,0.5576 0.442,0.4424 0.558,0.2841 0.618,0.0979 h 10 v 0.5 h -10 l -0.618,0.0979 -0.558,0.284 -0.442,0.4425 -0.284,0.5575 -0.098,0.6181 v 28.8333 l 0.098,0.618 0.284,0.558 0.442,0.442 0.558,0.284 0.618,0.098 h 10 v 0.5 h -10 l -0.618,0.098 -0.558,0.284 -0.442,0.442 -0.284,0.558 -0.098,0.618 v 28.833 l 0.098,0.618 0.284,0.558 0.442,0.442 0.558,0.284 0.618,0.098 h 10 v 0.5 h -10 l -0.618,0.098 -0.558,0.284 -0.442,0.443 -0.284,0.557 -0.098,0.618 v 28.834 l 0.098,0.618 0.284,0.557 0.442,0.443 0.558,0.284 0.618,0.098 h 10 v 0.5 h -10 l -0.618,0.098 -0.558,0.284 -0.442,0.442 -0.284,0.558 -0.098,0.618 v 28.833 l 0.098,0.618 0.284,0.558 0.442,0.442 0.558,0.284 0.618,0.098 h 10 v 0.5 h -10 l -0.618,0.098 -0.558,0.284 -0.442,0.442 -0.284,0.558 -0.098,0.618 v 28.833 l 0.098,0.618 0.284,0.558 0.442,0.442 0.558,0.284 0.618,0.098 h 10 v 0.5 h -10 l -0.618,0.098 -0.558,0.284 -0.442,0.443 -0.284,0.557 -0.098,0.618 v 28.834 l 0.098,0.618 0.284,0.557 0.442,0.443 0.558,0.284 0.618,0.098 h 10 v 0.5 h -10 l -0.618,0.098 -0.558,0.284 -0.442,0.442 -0.284,0.558 -0.098,0.618 v 28.833 l 0.098,0.618 0.284,0.558 0.442,0.442 0.558,0.284 0.618,0.098 h 10 v 0.5 h -10 l -0.618,0.098 -0.558,0.284 -0.442,0.442 -0.284,0.558 -0.098,0.618 v 32.083 h 24 v -11.666 z"
     id="path6855" />
  <path
     inkscape:connector-curvature="0"
     d="m -106.089,-285.368 -0.284,-0.558 -0.442,-0.442 -0.558,-0.284 -0.618,-0.098 h -10 v -0.5 h 10 l 0.618,-0.098 0.558,-0.284 0.442,-0.442 0.284,-0.558 0.098,-0.618 v -28.833 l -0.098,-0.618 -0.284,-0.558 -0.442,-0.442 -0.558,-0.284 -0.618,-0.098 h -10 v -0.5 h 10 l 0.618,-0.098 0.558,-0.284 0.442,-0.443 0.284,-0.557 0.098,-0.618 v -28.834 l -0.098,-0.618 -0.284,-0.557 -0.442,-0.443 -0.558,-0.284 -0.618,-0.098 h -10 v -0.5 h 10 l 0.618,-0.098 0.558,-0.284 0.442,-0.442 0.284,-0.558 0.098,-0.618 v -28.833 l -0.098,-0.618 -0.284,-0.558 -0.442,-0.442 -0.558,-0.284 -0.618,-0.098 h -10 v -0.5 h 10 l 0.618,-0.098 0.558,-0.284 0.442,-0.442 0.284,-0.558 0.098,-0.618 v -28.833 l -0.098,-0.618 -0.284,-0.558 -0.442,-0.442 -0.558,-0.284 -0.618,-0.098 h -10 v -0.5 h 10 l 0.618,-0.098 0.558,-0.284 0.442,-0.443 0.284,-0.557 0.098,-0.618 v -28.834 l -0.098,-0.618 -0.284,-0.557 -0.442,-0.443 -0.558,-0.284 -0.618,-0.098 h -10 v -0.5 h 10 l 0.618,-0.098 0.558,-0.284 0.442,-0.442 0.284,-0.558 0.098,-0.618 v -28.833 l -0.098,-0.618 -0.284,-0.558 -0.442,-0.442 -0.558,-0.284 -0.618,-0.098 h -10 v -0.5 h 10 l 0.618,-0.098 0.558,-0.284 0.442,-0.442 0.284,-0.558 0.098,-0.618 v -28.8333 l -0.098,-0.6181 -0.284,-0.5575 -0.442,-0.4425 -0.558,-0.284 -0.618,-0.0979 h -10 v -0.5 h 10 l 0.618,-0.0979 0.558,-0.2841 0.442,-0.4424 0.284,-0.5576 0.098,-0.618 v -28.8334 l -0.098,-0.618 -0.284,-0.5576 -0.442,-0.4424 -0.558,-0.2841 -0.618,-0.0979 h -10 v -0.5 h 10 l 0.618,-0.0979 0.558,-0.284 0.442,-0.4425 0.284,-0.5575 0.098,-0.6181 V -588 h -24 v 11.6667 h 1 v 12 h -1 V -543 h 1 v 12 h -1 v 21.3333 h 1 v 12 h -1 v 21.3337 h 1 v 12 h -1 V -443 h 1 v 12 h -1 v 21.333 h 1 v 12 h -1 v 21.334 h 1 v 12 h -1 V -343 h 1 v 12 h -1 v 21.333 h 1 v 12 h -1 v 21.334 h 1 v 12 h -1 v 11.666 h 24 v -32.083 z"
     id="path6851" />
  <path
     inkscape:connector-curvature="0"
     d="m -190.325,-229.667 h 12 v 1 h 21.334 v -1 h 12 v 1 h 21.333 v -1 h 12 v 1 h 21.333 v -1 h 12 v 1 h 21.334 v -1 h 12 v 1 h 21.333 v -1 h 12 v 1 H 9.675 v -1 h 12 v 1 h 21.3337 v -1 h 12 v 1 H 76.342 v -1 h 12 v 1 h 21.3333 v -1 h 12 v 1 h 11.6667 v -24 h -32.0833 l -0.6181,0.098 -0.5575,0.284 -0.4425,0.442 -0.284,0.558 -0.0979,0.618 v 10 h -0.5 v -10 l -0.0979,-0.618 -0.2841,-0.558 -0.4424,-0.442 -0.5576,-0.284 -0.618,-0.098 H 67.9253 l -0.618,0.098 -0.5576,0.284 -0.4424,0.442 -0.2841,0.558 -0.0979,0.618 v 10 h -0.5 v -10 l -0.0979,-0.618 -0.284,-0.558 -0.4425,-0.442 -0.5575,-0.284 -0.6181,-0.098 H 34.592 l -0.618,0.098 -0.558,0.284 -0.442,0.442 -0.284,0.558 -0.098,0.618 v 10 h -0.5 v -10 l -0.098,-0.618 -0.284,-0.558 -0.442,-0.442 -0.558,-0.284 -0.618,-0.098 H 1.259 l -0.618,0.098 -0.558,0.284 -0.442,0.442 -0.284,0.558 -0.098,0.618 v 10 h -0.5 v -10 l -0.098,-0.618 -0.284,-0.558 -0.443,-0.442 -0.557,-0.284 -0.618,-0.098 h -28.834 l -0.618,0.098 -0.557,0.284 -0.443,0.442 -0.284,0.558 -0.098,0.618 v 10 h -0.5 v -10 l -0.098,-0.618 -0.284,-0.558 -0.442,-0.442 -0.558,-0.284 -0.618,-0.098 h -28.833 l -0.618,0.098 -0.558,0.284 -0.442,0.442 -0.284,0.558 -0.098,0.618 v 10 h -0.5 v -10 l -0.098,-0.618 -0.284,-0.558 -0.442,-0.442 -0.558,-0.284 -0.618,-0.098 h -28.833 l -0.618,0.098 -0.558,0.284 -0.442,0.442 -0.284,0.558 -0.098,0.618 v 10 h -0.5 v -10 l -0.098,-0.618 -0.284,-0.558 -0.443,-0.442 -0.557,-0.284 -0.618,-0.098 h -28.834 l -0.618,0.098 -0.557,0.284 -0.443,0.442 -0.284,0.558 -0.098,0.618 v 10 h -0.5 v -10 l -0.098,-0.618 -0.284,-0.558 -0.442,-0.442 -0.558,-0.284 -0.618,-0.098 h -28.833 l -0.618,0.098 -0.558,0.284 -0.442,0.442 -0.284,0.558 -0.098,0.618 v 10 h -0.5 v -10 l -0.098,-0.618 -0.284,-0.558 -0.442,-0.442 -0.558,-0.284 -0.618,-0.098 h -32.083 v 24 h 11.666 z"
     id="path6849" />
  <path
     inkscape:connector-curvature="0"
     d="m -169.29,-204.765 0.558,-0.284 0.442,-0.442 0.284,-0.558 0.098,-0.618 v -10 h 0.5 v 10 l 0.098,0.618 0.284,0.558 0.442,0.442 0.558,0.284 0.618,0.098 h 28.833 l 0.618,-0.098 0.558,-0.284 0.442,-0.442 0.284,-0.558 0.098,-0.618 v -10 h 0.5 v 10 l 0.098,0.618 0.284,0.558 0.443,0.442 0.557,0.284 0.618,0.098 h 28.834 l 0.618,-0.098 0.557,-0.284 0.443,-0.442 0.284,-0.558 0.098,-0.618 v -10 h 0.5 v 10 l 0.098,0.618 0.284,0.558 0.442,0.442 0.558,0.284 0.618,0.098 h 28.833 l 0.618,-0.098 0.558,-0.284 0.442,-0.442 0.284,-0.558 0.098,-0.618 v -10 h 0.5 v 10 l 0.098,0.618 0.284,0.558 0.442,0.442 0.558,0.284 0.618,0.098 h 28.833 l 0.618,-0.098 0.558,-0.284 0.442,-0.442 0.284,-0.558 0.098,-0.618 v -10 h 0.5 v 10 l 0.098,0.618 0.284,0.558 0.443,0.442 0.557,0.284 0.618,0.098 h 28.834 l 0.618,-0.098 0.557,-0.284 0.443,-0.442 0.284,-0.558 0.098,-0.618 v -10 h 0.5 v 10 l 0.098,0.618 0.284,0.558 0.442,0.442 0.558,0.284 0.618,0.098 h 28.833 l 0.618,-0.098 0.558,-0.284 0.442,-0.442 0.284,-0.558 0.098,-0.618 v -10 h 0.5 v 10 l 0.098,0.618 0.284,0.558 0.442,0.442 0.558,0.284 0.618,0.098 h 28.8333 l 0.6181,-0.098 0.5575,-0.284 0.4425,-0.442 0.284,-0.558 0.0979,-0.618 v -10 h 0.5 v 10 l 0.0979,0.618 0.2841,0.558 0.4424,0.442 0.5576,0.284 0.618,0.098 h 28.8334 l 0.618,-0.098 0.5576,-0.284 0.4424,-0.442 0.2841,-0.558 0.0979,-0.618 v -10 h 0.5 v 10 l 0.0979,0.618 0.284,0.558 0.4425,0.442 0.5575,0.284 0.6181,0.098 h 32.0833 v -24 h -11.6667 v 1 h -12 v -1 H 88.342 v 1 h -12 v -1 H 55.0087 v 1 h -12 v -1 H 21.675 v 1 h -12 v -1 h -21.333 v 1 h -12 v -1 h -21.333 v 1 h -12 v -1 h -21.334 v 1 h -12 v -1 h -21.333 v 1 h -12 v -1 h -21.333 v 1 h -12 v -1 h -21.334 v 1 h -12 v -1 h -11.666 v 24 h 32.083 z"
     id="path6847" />
  <path
     inkscape:connector-curvature="0"
     d="m -190.325,-181.667 h 12 v 1 h 21.334 v -1 h 12 v 1 h 21.333 v -1 h 12 v 1 h 21.333 v -1 h 12 v 1 h 21.334 v -1 h 12 v 1 h 21.333 v -1 h 12 v 1 H 9.675 v -1 h 12 v 1 h 21.3337 v -1 h 12 v 1 H 76.342 v -1 h 12 v 1 h 21.3333 v -1 h 12 v 1 h 11.6667 v -24 h -32.0833 l -0.6181,0.098 -0.5575,0.284 -0.4425,0.442 -0.284,0.558 -0.0979,0.618 v 10 h -0.5 v -10 l -0.0979,-0.618 -0.2841,-0.558 -0.4424,-0.442 -0.5576,-0.284 -0.618,-0.098 H 67.9253 l -0.618,0.098 -0.5576,0.284 -0.4424,0.442 -0.2841,0.558 -0.0979,0.618 v 10 h -0.5 v -10 l -0.0979,-0.618 -0.284,-0.558 -0.4425,-0.442 -0.5575,-0.284 -0.6181,-0.098 H 34.592 l -0.618,0.098 -0.558,0.284 -0.442,0.442 -0.284,0.558 -0.098,0.618 v 10 h -0.5 v -10 l -0.098,-0.618 -0.284,-0.558 -0.442,-0.442 -0.558,-0.284 -0.618,-0.098 H 1.259 l -0.618,0.098 -0.558,0.284 -0.442,0.442 -0.284,0.558 -0.098,0.618 v 10 h -0.5 v -10 l -0.098,-0.618 -0.284,-0.558 -0.443,-0.442 -0.557,-0.284 -0.618,-0.098 h -28.834 l -0.618,0.098 -0.557,0.284 -0.443,0.442 -0.284,0.558 -0.098,0.618 v 10 h -0.5 v -10 l -0.098,-0.618 -0.284,-0.558 -0.442,-0.442 -0.558,-0.284 -0.618,-0.098 h -28.833 l -0.618,0.098 -0.558,0.284 -0.442,0.442 -0.284,0.558 -0.098,0.618 v 10 h -0.5 v -10 l -0.098,-0.618 -0.284,-0.558 -0.442,-0.442 -0.558,-0.284 -0.618,-0.098 h -28.833 l -0.618,0.098 -0.558,0.284 -0.442,0.442 -0.284,0.558 -0.098,0.618 v 10 h -0.5 v -10 l -0.098,-0.618 -0.284,-0.558 -0.443,-0.442 -0.557,-0.284 -0.618,-0.098 h -28.834 l -0.618,0.098 -0.557,0.284 -0.443,0.442 -0.284,0.558 -0.098,0.618 v 10 h -0.5 v -10 l -0.098,-0.618 -0.284,-0.558 -0.442,-0.442 -0.558,-0.284 -0.618,-0.098 h -28.833 l -0.618,0.098 -0.558,0.284 -0.442,0.442 -0.284,0.558 -0.098,0.618 v 10 h -0.5 v -10 l -0.098,-0.618 -0.284,-0.558 -0.442,-0.442 -0.558,-0.284 -0.618,-0.098 h -32.083 v 24 h 11.666 z"
     id="path6845" />
  <path
     inkscape:connector-curvature="0"
     d="m -169.29,-156.765 0.558,-0.284 0.442,-0.442 0.284,-0.558 0.098,-0.618 v -10 h 0.5 v 10 l 0.098,0.618 0.284,0.558 0.442,0.442 0.558,0.284 0.618,0.098 h 28.833 l 0.618,-0.098 0.558,-0.284 0.442,-0.442 0.284,-0.558 0.098,-0.618 v -10 h 0.5 v 10 l 0.098,0.618 0.284,0.558 0.443,0.442 0.557,0.284 0.618,0.098 h 28.834 l 0.618,-0.098 0.557,-0.284 0.443,-0.442 0.284,-0.558 0.098,-0.618 v -10 h 0.5 v 10 l 0.098,0.618 0.284,0.558 0.442,0.442 0.558,0.284 0.618,0.098 h 28.833 l 0.618,-0.098 0.558,-0.284 0.442,-0.442 0.284,-0.558 0.098,-0.618 v -10 h 0.5 v 10 l 0.098,0.618 0.284,0.558 0.442,0.442 0.558,0.284 0.618,0.098 h 28.833 l 0.618,-0.098 0.558,-0.284 0.442,-0.442 0.284,-0.558 0.098,-0.618 v -10 h 0.5 v 10 l 0.098,0.618 0.284,0.558 0.443,0.442 0.557,0.284 0.618,0.098 h 28.834 l 0.618,-0.098 0.557,-0.284 0.443,-0.442 0.284,-0.558 0.098,-0.618 v -10 h 0.5 v 10 l 0.098,0.618 0.284,0.558 0.442,0.442 0.558,0.284 0.618,0.098 h 28.833 l 0.618,-0.098 0.558,-0.284 0.442,-0.442 0.284,-0.558 0.098,-0.618 v -10 h 0.5 v 10 l 0.098,0.618 0.284,0.558 0.442,0.442 0.558,0.284 0.618,0.098 h 28.8333 l 0.6181,-0.098 0.5575,-0.284 0.4425,-0.442 0.284,-0.558 0.0979,-0.618 v -10 h 0.5 v 10 l 0.0979,0.618 0.2841,0.558 0.4424,0.442 0.5576,0.284 0.618,0.098 h 28.8334 l 0.618,-0.098 0.5576,-0.284 0.4424,-0.442 0.2841,-0.558 0.0979,-0.618 v -10 h 0.5 v 10 l 0.0979,0.618 0.284,0.558 0.4425,0.442 0.5575,0.284 0.6181,0.098 h 32.0833 v -24 h -11.6667 v 1 h -12 v -1 H 88.342 v 1 h -12 v -1 H 55.0087 v 1 h -12 v -1 H 21.675 v 1 h -12 v -1 h -21.333 v 1 h -12 v -1 h -21.333 v 1 h -12 v -1 h -21.334 v 1 h -12 v -1 h -21.333 v 1 h -12 v -1 h -21.333 v 1 h -12 v -1 h -21.334 v 1 h -12 v -1 h -11.666 v 24 h 32.083 z"
     id="path6843" />
  <path
     inkscape:connector-curvature="0"
     d="m -190.325,-133.667 h 12 v 1 h 21.334 v -1 h 12 v 1 h 21.333 v -1 h 12 v 1 h 21.333 v -1 h 12 v 1 h 21.334 v -1 h 12 v 1 h 21.333 v -1 h 12 v 1 H 9.675 v -1 h 12 v 1 h 21.3337 v -1 h 12 v 1 H 76.342 v -1 h 12 v 1 h 21.3333 v -1 h 12 v 1 h 11.6667 v -24 h -32.0833 l -0.6181,0.098 -0.5575,0.284 -0.4425,0.442 -0.284,0.558 -0.0979,0.618 v 10 h -0.5 v -10 l -0.0979,-0.618 -0.2841,-0.558 -0.4424,-0.442 -0.5576,-0.284 -0.618,-0.098 H 67.9253 l -0.618,0.098 -0.5576,0.284 -0.4424,0.442 -0.2841,0.558 -0.0979,0.618 v 10 h -0.5 v -10 l -0.0979,-0.618 -0.284,-0.558 -0.4425,-0.442 -0.5575,-0.284 -0.6181,-0.098 H 34.592 l -0.618,0.098 -0.558,0.284 -0.442,0.442 -0.284,0.558 -0.098,0.618 v 10 h -0.5 v -10 l -0.098,-0.618 -0.284,-0.558 -0.442,-0.442 -0.558,-0.284 -0.618,-0.098 H 1.259 l -0.618,0.098 -0.558,0.284 -0.442,0.442 -0.284,0.558 -0.098,0.618 v 10 h -0.5 v -10 l -0.098,-0.618 -0.284,-0.558 -0.443,-0.442 -0.557,-0.284 -0.618,-0.098 h -28.834 l -0.618,0.098 -0.557,0.284 -0.443,0.442 -0.284,0.558 -0.098,0.618 v 10 h -0.5 v -10 l -0.098,-0.618 -0.284,-0.558 -0.442,-0.442 -0.558,-0.284 -0.618,-0.098 h -28.833 l -0.618,0.098 -0.558,0.284 -0.442,0.442 -0.284,0.558 -0.098,0.618 v 10 h -0.5 v -10 l -0.098,-0.618 -0.284,-0.558 -0.442,-0.442 -0.558,-0.284 -0.618,-0.098 h -28.833 l -0.618,0.098 -0.558,0.284 -0.442,0.442 -0.284,0.558 -0.098,0.618 v 10 h -0.5 v -10 l -0.098,-0.618 -0.284,-0.558 -0.443,-0.442 -0.557,-0.284 -0.618,-0.098 h -28.834 l -0.618,0.098 -0.557,0.284 -0.443,0.442 -0.284,0.558 -0.098,0.618 v 10 h -0.5 v -10 l -0.098,-0.618 -0.284,-0.558 -0.442,-0.442 -0.558,-0.284 -0.618,-0.098 h -28.833 l -0.618,0.098 -0.558,0.284 -0.442,0.442 -0.284,0.558 -0.098,0.618 v 10 h -0.5 v -10 l -0.098,-0.618 -0.284,-0.558 -0.442,-0.442 -0.558,-0.284 -0.618,-0.098 h -32.083 v 24 h 11.666 z"
     id="path4" />
</svg>
